<svg xmlns="http://www.w3.org/2000/svg" viewBox="0 0 1200 900" role="img" aria-label="Coffee beans">
<defs>
<filter id="g" x="0" y="0" width="100%" height="100%">
<feTurbulence type="fractalNoise" baseFrequency="0.8" numOctaves="2" stitchTiles="stitch"/>
<feColorMatrix type="matrix" values="0 0 0 0 0.30 0 0 0 0 0.28 0 0 0 0 0.24 0 0 0 0.07 0"/>
</filter>
</defs>
<linearGradient id="bg" x1="0" y1="0" x2="0" y2="1">
<stop offset="0" stop-color="#ECE2D0"/><stop offset="1" stop-color="#D9C6A8"/>
</linearGradient>
<rect width="1200" height="900" fill="url(#bg)"/>

<g transform="translate(0 0) scale(1)" transform-origin="600 450">
<ellipse cx="345" cy="552" rx="127.5" ry="91.8" transform="rotate(-28.2 345 552)" fill="#4A3222" opacity="0.82"/><path d="M274.875 552 Q345 501 415.125 552" stroke="#D9C6A8" stroke-width="20.400000000000002" fill="none" opacity="0.9"/><ellipse cx="561.75" cy="271.5" rx="108.375" ry="78.03" transform="rotate(-20.9 561.75 271.5)" fill="#4A3222" opacity="0.82"/><path d="M502.14375 271.5 Q561.75 228.15 621.35625 271.5" stroke="#D9C6A8" stroke-width="17.34" fill="none" opacity="0.9"/><ellipse cx="893.25" cy="386.25" rx="95.625" ry="68.85" transform="rotate(37.0 893.25 386.25)" fill="#4A3222" opacity="0.82"/><path d="M840.65625 386.25 Q893.25 348 945.84375 386.25" stroke="#D9C6A8" stroke-width="15.3" fill="none" opacity="0.9"/><ellipse cx="689.25" cy="679.5" rx="82.875" ry="59.669999999999995" transform="rotate(32.8 689.25 679.5)" fill="#4A3222" opacity="0.82"/><path d="M643.66875 679.5 Q689.25 646.35 734.83125 679.5" stroke="#D9C6A8" stroke-width="13.26" fill="none" opacity="0.9"/><ellipse cx="370.5" cy="309.75" rx="76.5" ry="55.08" transform="rotate(-45.4 370.5 309.75)" fill="#4A3222" opacity="0.82"/><path d="M328.425 309.75 Q370.5 279.15 412.575 309.75" stroke="#D9C6A8" stroke-width="12.24" fill="none" opacity="0.9"/><ellipse cx="842.25" cy="666.75" rx="63.75" ry="45.9" transform="rotate(53.8 842.25 666.75)" fill="#4A3222" opacity="0.82"/><path d="M807.1875 666.75 Q842.25 641.25 877.3125 666.75" stroke="#D9C6A8" stroke-width="10.200000000000001" fill="none" opacity="0.9"/><ellipse cx="294" cy="475.5" rx="57.375" ry="41.309999999999995" transform="rotate(-42.2 294 475.5)" fill="#4A3222" opacity="0.82"/><path d="M262.44375 475.5 Q294 452.55 325.55625 475.5" stroke="#D9C6A8" stroke-width="9.18" fill="none" opacity="0.9"/><ellipse cx="612.75" cy="501" rx="114.75" ry="82.61999999999999" transform="rotate(6.3 612.75 501)" fill="#4A3222" opacity="0.82"/><path d="M549.6375 501 Q612.75 455.1 675.8625 501" stroke="#D9C6A8" stroke-width="18.36" fill="none" opacity="0.9"/>
</g>
<radialGradient id="v" cx="0.5" cy="0.42" r="0.85">
<stop offset="0.55" stop-color="#000" stop-opacity="0"/>
<stop offset="1" stop-color="#000" stop-opacity="0.16"/>
</radialGradient>
<rect width="1200" height="900" fill="url(#v)"/>
<rect width="1200" height="900" filter="url(#g)" opacity="0.9"/>
</svg>