<svg xmlns="http://www.w3.org/2000/svg" viewBox="0 0 1200 900" role="img" aria-label="Handwoven textiles">
<defs>
<filter id="g" x="0" y="0" width="100%" height="100%">
<feTurbulence type="fractalNoise" baseFrequency="0.8" numOctaves="2" stitchTiles="stitch"/>
<feColorMatrix type="matrix" values="0 0 0 0 0.30 0 0 0 0 0.28 0 0 0 0 0.24 0 0 0 0.07 0"/>
</filter>
</defs>
<linearGradient id="bg" x1="0" y1="0" x2="0" y2="1">
<stop offset="0" stop-color="#EBDAC4"/><stop offset="1" stop-color="#D8BD9B"/>
</linearGradient>
<rect width="1200" height="900" fill="url(#bg)"/>

<g transform="translate(0 0) scale(1)" transform-origin="600 450">
<rect x="255" y="60" width="690" height="780" rx="30" fill="#5C3A24" opacity="0.9"/><rect x="270" y="105" width="660" height="67.5" fill="#D8BD9B"/><path d="M270 123 h660 M270 153 h660" stroke="#5C3A24" stroke-width="8.25" stroke-dasharray="16.5 25.5" opacity="0.5"/><rect x="270" y="222" width="660" height="67.5" fill="#8A3F22"/><path d="M270 240 h660 M270 270 h660" stroke="#5C3A24" stroke-width="8.25" stroke-dasharray="16.5 25.5" opacity="0.5"/><rect x="270" y="339" width="660" height="67.5" fill="#C19A6B"/><path d="M270 357 h660 M270 387 h660" stroke="#5C3A24" stroke-width="8.25" stroke-dasharray="16.5 25.5" opacity="0.5"/><rect x="270" y="456" width="660" height="67.5" fill="#EBDAC4"/><path d="M270 474 h660 M270 504 h660" stroke="#5C3A24" stroke-width="8.25" stroke-dasharray="16.5 25.5" opacity="0.5"/><rect x="270" y="573" width="660" height="67.5" fill="#8A3F22"/><path d="M270 591 h660 M270 621 h660" stroke="#5C3A24" stroke-width="8.25" stroke-dasharray="16.5 25.5" opacity="0.5"/><rect x="270" y="690" width="660" height="67.5" fill="#C19A6B"/><path d="M270 708 h660 M270 738 h660" stroke="#5C3A24" stroke-width="8.25" stroke-dasharray="16.5 25.5" opacity="0.5"/><rect x="270" y="807" width="660" height="67.5" fill="#D8BD9B"/><path d="M270 825 h660 M270 855 h660" stroke="#5C3A24" stroke-width="8.25" stroke-dasharray="16.5 25.5" opacity="0.5"/><rect x="255" y="60" width="690" height="780" rx="30" fill="none" stroke="#5C3A24" stroke-width="11.25"/>
</g>
<radialGradient id="v" cx="0.5" cy="0.42" r="0.85">
<stop offset="0.55" stop-color="#000" stop-opacity="0"/>
<stop offset="1" stop-color="#000" stop-opacity="0.16"/>
</radialGradient>
<rect width="1200" height="900" fill="url(#v)"/>
<rect width="1200" height="900" filter="url(#g)" opacity="0.9"/>
</svg>